<svg id="FINAL" xmlns="http://www.w3.org/2000/svg" viewBox="0 0 471.54 53.38"><defs><style>.cls-1{fill:#414042;}.cls-2{fill:#008cc8;}.cls-3{fill:#fff;}</style></defs><title>RS.Logo.dark+blue-white-interior</title><path class="cls-1" d="M1757.17,1298.52h13.16c3.66,0,6.5,1,8.39,2.92a9,9,0,0,1,2.47,6.58v0.08A8.94,8.94,0,0,1,1775,1317l7,10.28h-7.4l-6.17-9.21h-5v9.21h-6.33v-28.79Zm12.75,14c3.08,0,4.85-1.64,4.85-4.07v-0.08c0-2.71-1.89-4.11-5-4.11h-6.29v8.27h6.42Z" transform="translate(-1757.17 -1286.12)"/><path class="cls-1" d="M1784.72,1298.52h6.33v28.79h-6.33v-28.79Z" transform="translate(-1757.17 -1286.12)"/><path class="cls-1" d="M1794.51,1313v-0.08A14.77,14.77,0,0,1,1809.6,1298c5.18,0,8.31,1.4,11.31,3.95l-4,4.81a10.6,10.6,0,0,0-7.53-2.92c-4.61,0-8.27,4.07-8.27,9v0.08c0,5.26,3.62,9.13,8.72,9.13a10.11,10.11,0,0,0,6-1.73v-4.11h-6.37v-5.47h12.5v12.5a18.69,18.69,0,0,1-12.3,4.56C1800.67,1327.8,1794.51,1321.51,1794.51,1313Z" transform="translate(-1757.17 -1286.12)"/><path class="cls-1" d="M1825.55,1298.52h6.33v11.39h11.68v-11.39h6.33v28.79h-6.33v-11.56h-11.68v11.56h-6.33v-28.79Z" transform="translate(-1757.17 -1286.12)"/><path class="cls-1" d="M1861,1304.36h-8.76v-5.84h23.85v5.84h-8.76v22.95H1861v-22.95Z" transform="translate(-1757.17 -1286.12)"/><path class="cls-1" d="M1876.53,1323.11l3.74-4.48a13.21,13.21,0,0,0,8.59,3.5c2.59,0,4.15-1,4.15-2.71v-0.08c0-1.6-1-2.43-5.8-3.66-5.8-1.48-9.54-3.08-9.54-8.8v-0.08c0-5.22,4.19-8.68,10.07-8.68a16.66,16.66,0,0,1,10.69,3.66l-3.29,4.77a13.51,13.51,0,0,0-7.48-2.84c-2.43,0-3.7,1.11-3.7,2.51v0.08c0,1.89,1.23,2.51,6.21,3.78,5.84,1.52,9.13,3.62,9.13,8.64v0.08c0,5.72-4.36,8.92-10.57,8.92A18.32,18.32,0,0,1,1876.53,1323.11Z" transform="translate(-1757.17 -1286.12)"/><path class="cls-1" d="M1972.73,1323.11l3.74-4.48a13.21,13.21,0,0,0,8.59,3.5c2.59,0,4.15-1,4.15-2.71v-0.08c0-1.6-1-2.43-5.8-3.66-5.8-1.48-9.54-3.08-9.54-8.8v-0.08c0-5.22,4.19-8.68,10.07-8.68a16.66,16.66,0,0,1,10.69,3.66l-3.29,4.77a13.51,13.51,0,0,0-7.48-2.84c-2.43,0-3.7,1.11-3.7,2.51v0.08c0,1.89,1.23,2.51,6.21,3.78,5.84,1.52,9.13,3.62,9.13,8.64v0.08c0,5.72-4.36,8.92-10.57,8.92A18.32,18.32,0,0,1,1972.73,1323.11Z" transform="translate(-1757.17 -1286.12)"/><path class="cls-1" d="M2005.25,1304.36h-8.76v-5.84h23.85v5.84h-8.76v22.95h-6.33v-22.95Z" transform="translate(-1757.17 -1286.12)"/><path class="cls-1" d="M2029.31,1298.32h5.84l12.34,29h-6.62l-2.63-6.46h-12.17l-2.63,6.46H2017Zm6.66,16.94-3.82-9.33-3.82,9.33H2036Z" transform="translate(-1757.17 -1286.12)"/><path class="cls-1" d="M2052.86,1304.36h-8.76v-5.84H2068v5.84h-8.76v22.95h-6.33v-22.95Z" transform="translate(-1757.17 -1286.12)"/><path class="cls-1" d="M2070.34,1298.52h21.71v5.63h-15.42V1310h13.57v5.63h-13.57v6h15.63v5.63h-21.92v-28.79Z" transform="translate(-1757.17 -1286.12)"/><path class="cls-1" d="M2095.42,1298.52h6.83l7.57,12.17,7.57-12.17h6.83v28.79h-6.29v-18.79l-8.1,12.3h-0.16l-8-12.17v18.67h-6.21v-28.79Z" transform="translate(-1757.17 -1286.12)"/><path class="cls-1" d="M2128.64,1298.52h21.71v5.63h-15.42V1310h13.57v5.63h-13.57v6h15.63v5.63h-21.92v-28.79Z" transform="translate(-1757.17 -1286.12)"/><path class="cls-1" d="M2153.72,1298.52h5.84l13.49,17.72v-17.72h6.25v28.79h-5.39L2160,1309v18.3h-6.25v-28.79Z" transform="translate(-1757.17 -1286.12)"/><path class="cls-1" d="M2190.44,1304.36h-8.76v-5.84h23.85v5.84h-8.76v22.95h-6.33v-22.95Z" transform="translate(-1757.17 -1286.12)"/><path class="cls-1" d="M2205.93,1323.11l3.74-4.48a13.21,13.21,0,0,0,8.59,3.5c2.59,0,4.15-1,4.15-2.71v-0.08c0-1.6-1-2.43-5.8-3.66-5.8-1.48-9.54-3.08-9.54-8.8v-0.08c0-5.22,4.19-8.68,10.08-8.68a16.66,16.66,0,0,1,10.69,3.66l-3.29,4.77a13.51,13.51,0,0,0-7.48-2.84c-2.43,0-3.7,1.11-3.7,2.51v0.08c0,1.89,1.23,2.51,6.21,3.78,5.84,1.52,9.13,3.62,9.13,8.64v0.08c0,5.72-4.36,8.92-10.57,8.92A18.32,18.32,0,0,1,2205.93,1323.11Z" transform="translate(-1757.17 -1286.12)"/><path class="cls-2" d="M1963,1286.12v26.69a26.69,26.69,0,0,1-26.69,26.69h-26.69V1312.8a26.69,26.69,0,0,1,26.69-26.69H1963Zm-19.18,23.66h-8.58a3,3,0,0,0,0,6.06h8.58A3,3,0,0,0,1943.78,1309.78Zm-4.92,9.38h-3.64a3,3,0,0,0-3,3h0a3,3,0,0,0,3,3h3.64a3,3,0,0,0,3-3h0A3,3,0,0,0,1938.87,1319.16Zm10.08-18.75h-13.71a3,3,0,0,0,0,6.06h13.71A3,3,0,0,0,1948.95,1300.42Zm-21.82,0a3,3,0,1,0,3,3A3,3,0,0,0,1927.13,1300.42Zm0,9.33a3,3,0,1,0,3,3A3,3,0,0,0,1927.13,1309.75Zm0,9.38a3,3,0,1,0,3,3A3,3,0,0,0,1927.13,1319.12Z" transform="translate(-1757.17 -1286.12)"/><path class="cls-3" d="M1943.78,1309.78h-8.58a3,3,0,0,0,0,6.06h8.58A3,3,0,0,0,1943.78,1309.78Z" transform="translate(-1757.17 -1286.12)"/><path class="cls-3" d="M1938.87,1319.16h-3.64a3,3,0,0,0-3,3h0a3,3,0,0,0,3,3h3.64a3,3,0,0,0,3-3h0A3,3,0,0,0,1938.87,1319.16Z" transform="translate(-1757.17 -1286.12)"/><path class="cls-3" d="M1948.95,1300.42h-13.71a3,3,0,0,0,0,6.06h13.71A3,3,0,0,0,1948.95,1300.42Z" transform="translate(-1757.17 -1286.12)"/><circle class="cls-3" cx="169.95" cy="17.33" r="3.03"/><circle class="cls-3" cx="169.95" cy="26.66" r="3.03"/><circle class="cls-3" cx="169.95" cy="36.04" r="3.03"/></svg>